<?xml version="1.0" standalone="no"?>
<!DOCTYPE svg PUBLIC "-//W3C//DTD SVG 20010904//EN"
 "http://www.w3.org/TR/2001/REC-SVG-20010904/DTD/svg10.dtd">
<svg version="1.0" xmlns="http://www.w3.org/2000/svg"
 width="1500.000000pt" height="1500.000000pt" viewBox="0 0 1500.000000 1500.000000"
 preserveAspectRatio="xMidYMid meet">
<metadata>
Created by potrace 1.11, written by Peter Selinger 2001-2013
</metadata>
<g transform="translate(0.000000,1500.000000) scale(0.100000,-0.100000)"
fill="#000000" stroke="none">
<path d="M2529 10176 c-2 -2 -44 -6 -94 -10 -49 -3 -101 -8 -115 -10 -14 -2
-47 -7 -73 -11 -27 -4 -57 -8 -67 -10 -9 -2 -33 -6 -51 -9 -378 -64 -741 -215
-1029 -430 -110 -82 -295 -262 -367 -356 -226 -299 -330 -616 -326 -995 6
-410 138 -729 423 -1015 63 -64 126 -124 140 -135 325 -257 734 -439 1285
-574 110 -27 274 -68 365 -90 91 -23 175 -44 187 -46 47 -11 272 -84 338 -110
210 -83 340 -184 386 -301 33 -84 32 -233 -1 -319 -44 -115 -131 -212 -240
-269 -90 -47 -123 -57 -263 -80 -73 -13 -344 -15 -392 -3 -11 2 -42 8 -70 12
-139 20 -318 99 -427 189 -135 112 -218 296 -231 511 l-2 40 -840 0 -840 0 1
-35 c11 -448 229 -898 600 -1240 74 -69 146 -129 173 -144 8 -5 35 -25 60 -43
93 -71 323 -197 471 -257 36 -15 74 -31 85 -36 24 -11 142 -50 240 -79 70 -21
350 -82 363 -79 6 1 60 -6 132 -18 150 -25 747 -24 902 1 21 3 67 9 153 21 33
4 101 15 125 19 113 23 191 41 265 62 589 164 1067 497 1304 907 28 48 51 89
51 91 0 1 9 23 20 49 12 25 21 48 20 51 0 3 6 18 14 33 15 29 63 213 71 275 3
20 7 54 11 75 7 50 7 296 -1 358 -17 141 -29 201 -57 299 -45 158 -127 321
-224 451 -74 98 -225 251 -304 307 -194 138 -364 231 -555 306 -60 24 -119 47
-130 52 -52 22 -484 145 -575 163 -14 2 -81 17 -150 31 -69 15 -134 29 -145
30 -22 3 -29 5 -150 30 -287 58 -543 151 -677 243 -136 94 -208 222 -208 371
0 136 47 247 146 347 99 99 247 173 385 191 108 13 303 5 377 -16 18 -5 33 -9
35 -9 1 1 26 -7 56 -17 138 -46 253 -144 314 -268 50 -104 55 -121 70 -268
l11 -106 900 1 901 1 -1 35 c-5 292 -79 569 -211 795 -62 105 -88 143 -152
219 -311 369 -764 624 -1326 744 -77 17 -160 33 -185 36 -25 3 -63 8 -85 11
-121 15 -192 23 -205 24 -34 4 -608 10 -611 7z"/>
<path d="M9339 10176 c-2 -2 -35 -6 -74 -10 -264 -23 -574 -121 -790 -249
-194 -115 -389 -279 -522 -438 -31 -38 -58 -67 -60 -66 -4 5 -11 64 -18 152
-6 86 -13 166 -20 230 -2 22 -7 81 -11 130 -6 81 -8 106 -13 140 -1 7 -284 10
-838 9 -461 -1 -840 -2 -843 -3 -3 0 -5 -1297 -5 -2881 l0 -2880 897 0 898 0
1 23 c0 12 1 914 1 2005 l1 1983 50 75 c142 217 355 355 597 388 56 8 264 8
310 1 347 -57 480 -232 516 -680 3 -44 6 -916 7 -1937 l0 -1858 901 0 901 0 0
2011 0 2011 47 73 c167 254 423 388 742 385 120 -1 150 -3 213 -15 18 -3 35
-6 38 -6 15 2 138 -51 174 -73 120 -76 205 -224 237 -415 3 -18 7 -41 9 -50
15 -78 18 -438 18 -2059 l0 -1862 903 0 903 0 -3 1973 c-2 1084 -6 1990 -9
2012 -3 22 -8 72 -11 111 -4 39 -8 80 -10 90 -2 11 -7 46 -11 79 -9 84 -59
313 -90 415 -89 295 -223 537 -405 731 -42 45 -153 137 -219 181 -171 116
-413 211 -621 243 -25 4 -54 9 -65 11 -99 20 -488 27 -630 12 -243 -26 -454
-84 -655 -179 -285 -136 -501 -314 -704 -583 l-65 -87 -37 73 c-36 72 -119
204 -165 263 -58 73 -205 207 -290 264 -170 115 -349 185 -571 225 -73 13
-140 24 -148 25 -38 4 -457 11 -461 7z"/>
</g>
</svg>
